<svg width="60" height="60" viewBox="0 0 60 60" fill="none" xmlns="http://www.w3.org/2000/svg">
<path d="M30 1.875C25.0298 1.87604 20.1486 3.19389 15.8532 5.69442C11.5578 8.19496 8.00154 11.7889 5.54646 16.1104C3.09139 20.432 1.82511 25.3268 1.87652 30.2968C1.92792 35.2668 3.29517 40.1344 5.83911 44.4042C5.71102 44.5594 5.63635 44.7518 5.62616 44.9528C5.61596 45.1538 5.67079 45.3527 5.78251 45.5201L6.84422 47.1127L2.33016 49.8211C2.16789 49.9184 2.03887 50.0626 1.96008 50.2347C1.88128 50.4067 1.8564 50.5986 1.88869 50.785C1.92099 50.9715 2.00895 51.1438 2.14102 51.2793C2.27309 51.4149 2.44308 51.5072 2.62864 51.5443L6.52008 52.3226L6.25958 57.1368C6.25037 57.3067 6.28762 57.476 6.36734 57.6265C6.44705 57.7769 6.56622 57.9028 6.71206 57.9906C6.85789 58.0784 7.02489 58.1249 7.19513 58.125C7.36537 58.1251 7.53242 58.0788 7.67836 57.9912L14.8385 53.6904C19.3654 56.5858 24.6267 58.1245 30.0004 58.1245C35.3741 58.1245 40.6354 56.5858 45.1623 53.6904L52.3225 57.9912C52.4684 58.0788 52.6355 58.1251 52.8057 58.125C52.9759 58.1249 53.1429 58.0784 53.2888 57.9906C53.4346 57.9028 53.5538 57.7769 53.6335 57.6265C53.7132 57.476 53.7505 57.3067 53.7413 57.1368L53.4807 52.3226L57.3722 51.5443C57.5578 51.5072 57.7277 51.4149 57.8598 51.2793C57.9919 51.1438 58.0798 50.9715 58.1121 50.785C58.1444 50.5986 58.1195 50.4067 58.0407 50.2347C57.962 50.0626 57.8329 49.9184 57.6707 49.8211L53.1563 47.1127L54.218 45.5201C54.3297 45.3526 54.3845 45.1536 54.3743 44.9526C54.3641 44.7515 54.2893 44.5591 54.1611 44.4039C56.7059 40.1342 58.0738 35.2664 58.1256 30.2961C58.1774 25.3259 56.9112 20.4306 54.456 16.1088C52.0007 11.787 48.4441 8.19303 44.1482 5.69274C39.8523 3.19244 34.9705 1.87516 30 1.875ZM10.5901 44.1067C16.6476 41.1992 23.2809 39.6896 30 39.6896C36.7191 39.6896 43.3524 41.1992 49.4099 44.1067L52.0583 45.3782L49.3533 49.4358C43.276 46.6703 36.6767 45.2393 29.9998 45.2393C23.3229 45.2393 16.7235 46.6703 10.6463 49.4358L7.94133 45.3782L10.5901 44.1067ZM30 37.8146C24.704 37.8221 19.4472 38.7239 14.4516 40.4822C12.3558 37.389 11.2402 33.7363 11.25 30C11.25 19.6611 19.6611 11.25 30 11.25C40.3389 11.25 48.75 19.6611 48.75 30C48.7589 33.7362 47.6432 37.3886 45.5479 40.482C40.5524 38.7238 35.2958 37.8221 30 37.8146ZM36.4887 47.5927C32.3004 49.1358 27.6993 49.1358 23.511 47.5927C27.8134 46.9548 32.1863 46.9548 36.4887 47.5927ZM8.22727 55.4743L8.4361 51.6132C8.44831 51.3881 8.37899 51.1661 8.24084 50.988C8.10268 50.8098 7.90495 50.6874 7.68387 50.6432L5.37422 50.1813L7.88555 48.6745L9.53251 51.1451C9.65754 51.3326 9.84593 51.4688 10.0632 51.5287C10.2804 51.5887 10.512 51.5683 10.7155 51.4714C11.343 51.1726 11.9779 50.8889 12.6202 50.6203L13.6748 52.2023L8.22727 55.4743ZM15.8534 52.1146C15.8326 52.0678 15.8081 52.0227 15.78 51.9799L14.4047 49.9174C16.3197 49.2097 18.2805 48.6325 20.2734 48.1895C23.2661 49.7885 26.6069 50.6251 30 50.6251C33.3931 50.6251 36.7339 49.7885 39.7266 48.1895C41.7196 48.6322 43.6804 49.2093 45.5954 49.9168L44.2201 51.9793C44.1921 52.0221 44.1676 52.0671 44.1469 52.1139C39.9227 54.8143 35.0138 56.2494 30.0002 56.2494C24.9866 56.2494 20.0777 54.8143 15.8535 52.1139L15.8534 52.1146ZM54.6258 50.181L52.3161 50.6428C52.0951 50.687 51.8973 50.8094 51.7592 50.9876C51.621 51.1658 51.5517 51.3878 51.5639 51.6129L51.7727 55.474L46.3253 52.2023L47.38 50.6203C48.0216 50.8895 48.6565 51.1732 49.2846 51.4714C49.4882 51.5685 49.7199 51.5889 49.9373 51.529C50.1547 51.469 50.3432 51.3327 50.4682 51.1451L52.1152 48.6745L54.6258 50.181ZM52.5086 43.5139L50.2213 42.416C49.2793 41.9639 48.3218 41.5442 47.3488 41.1568C49.4962 37.8327 50.6342 33.9574 50.625 30C50.625 18.6273 41.3727 9.375 30 9.375C18.6273 9.375 9.37501 18.6273 9.37501 30C9.36471 33.9577 10.5024 37.8334 12.6503 41.1575C11.6787 41.545 10.7217 41.9646 9.77918 42.4164L7.49251 43.5139C5.10218 39.5307 3.81171 34.9844 3.75287 30.3394C3.69403 25.6943 4.86892 21.1169 7.15758 17.0743C9.44623 13.0318 12.7667 9.66902 16.7799 7.32934C20.7931 4.98966 25.3553 3.75689 30.0008 3.75689C34.6462 3.75689 39.2084 4.98966 43.2216 7.32934C47.2349 9.66902 50.5553 13.0318 52.844 17.0743C55.1326 21.1169 56.3075 25.6943 56.2487 30.3394C56.1898 34.9844 54.8994 39.5307 52.509 43.5139H52.5086Z" fill="#FF5C00"/>
<path d="M38.9063 22.5H33.75C33.5014 22.4997 33.2632 22.4009 33.0874 22.2251C32.9116 22.0493 32.8128 21.8111 32.8125 21.5625V18.75C32.8116 18.0043 32.515 17.2895 31.9878 16.7622C31.4605 16.235 30.7457 15.9384 30 15.9375H28.125C27.8764 15.9375 27.6379 16.0363 27.4621 16.2121C27.2863 16.3879 27.1875 16.6264 27.1875 16.875V18.9414C27.1895 19.6496 27.0509 20.3511 26.7799 21.0054C26.5088 21.6596 26.1107 22.2537 25.6085 22.753L24.9241 23.4375H19.6875C19.4389 23.4375 19.2004 23.5363 19.0246 23.7121C18.8488 23.8879 18.75 24.1264 18.75 24.375V34.6875C18.75 34.9361 18.8488 35.1746 19.0246 35.3504C19.2004 35.5262 19.4389 35.625 19.6875 35.625H36.0938C36.4734 35.6251 36.8474 35.533 37.1835 35.3565C37.5197 35.1801 37.8079 34.9247 38.0235 34.6122C38.2391 34.2997 38.3756 33.9395 38.4211 33.5626C38.4667 33.1857 38.42 32.8034 38.2852 32.4485C38.7418 32.1597 39.0845 31.722 39.2554 31.2094C39.4262 30.6969 39.4147 30.141 39.2227 29.636C39.6793 29.3472 40.022 28.9095 40.1929 28.3969C40.3637 27.8844 40.3522 27.3285 40.1602 26.8235C40.589 26.5518 40.9179 26.1482 41.0977 25.6735C41.2774 25.1987 41.2981 24.6785 41.1567 24.1909C41.0153 23.7034 40.7194 23.2749 40.3136 22.97C39.9077 22.6651 39.4139 22.5001 38.9063 22.5ZM20.625 25.3125H24.375V33.75H20.625V25.3125ZM38.9063 25.3125H37.9688C37.7201 25.3125 37.4817 25.4113 37.3058 25.5871C37.13 25.7629 37.0313 26.0014 37.0313 26.25C37.0313 26.4986 37.13 26.7371 37.3058 26.9129C37.4817 27.0887 37.7201 27.1875 37.9688 27.1875C38.0931 27.1875 38.2123 27.2369 38.3002 27.3248C38.3881 27.4127 38.4375 27.5319 38.4375 27.6562C38.4375 27.7806 38.3881 27.8998 38.3002 27.9877C38.2123 28.0756 38.0931 28.125 37.9688 28.125H37.0313C36.7826 28.125 36.5442 28.2238 36.3683 28.3996C36.1925 28.5754 36.0938 28.8139 36.0938 29.0625C36.0938 29.3111 36.1925 29.5496 36.3683 29.7254C36.5442 29.9012 36.7826 30 37.0313 30C37.1556 30 37.2748 30.0494 37.3627 30.1373C37.4506 30.2252 37.5 30.3444 37.5 30.4688C37.5 30.5931 37.4506 30.7123 37.3627 30.8002C37.2748 30.8881 37.1556 30.9375 37.0313 30.9375H36.0938C35.8451 30.9375 35.6067 31.0363 35.4308 31.2121C35.255 31.3879 35.1563 31.6264 35.1563 31.875C35.1563 32.1236 35.255 32.3621 35.4308 32.5379C35.6067 32.7137 35.8451 32.8125 36.0938 32.8125C36.2181 32.8125 36.3373 32.8619 36.4252 32.9498C36.5131 33.0377 36.5625 33.1569 36.5625 33.2812C36.5625 33.4056 36.5131 33.5248 36.4252 33.6127C36.3373 33.7006 36.2181 33.75 36.0938 33.75H26.25V24.7632L26.9345 24.079C27.6113 23.4058 28.1478 22.6052 28.5131 21.7233C28.8783 20.8414 29.0651 19.8959 29.0625 18.9414V17.8125H30C30.2486 17.8128 30.4869 17.9116 30.6626 18.0874C30.8384 18.2632 30.9372 18.5014 30.9375 18.75V21.5625C30.9384 22.3082 31.235 23.023 31.7622 23.5503C32.2895 24.0775 33.0043 24.3741 33.75 24.375H38.9063C39.0306 24.375 39.1498 24.4244 39.2377 24.5123C39.3256 24.6002 39.375 24.7194 39.375 24.8438C39.375 24.9681 39.3256 25.0873 39.2377 25.1752C39.1498 25.2631 39.0306 25.3125 38.9063 25.3125Z" fill="#FF5C00"/>
<path d="M28.0559 42.2109L28.9231 42.841L28.5918 43.8606C28.5688 43.9312 28.5687 44.0073 28.5917 44.0779C28.6146 44.1486 28.6593 44.2102 28.7194 44.2538C28.7795 44.2975 28.8518 44.321 28.9261 44.321C29.0004 44.321 29.0727 44.2974 29.1328 44.2537L30 43.6236L30.8672 44.2537C30.9273 44.2974 30.9996 44.321 31.0739 44.321C31.1482 44.321 31.2205 44.2975 31.2806 44.2538C31.3407 44.2102 31.3854 44.1486 31.4083 44.0779C31.4313 44.0073 31.4312 43.9312 31.4083 43.8606L31.077 42.841L31.9442 42.2109C32.0042 42.1673 32.0489 42.1058 32.0719 42.0352C32.0948 41.9646 32.0948 41.8885 32.0719 41.8179C32.0489 41.7473 32.0042 41.6858 31.9442 41.6421C31.8841 41.5985 31.8118 41.575 31.7375 41.575H30.6656L30.3343 40.5554C30.3114 40.4848 30.2667 40.4233 30.2066 40.3797C30.1466 40.3361 30.0742 40.3126 30 40.3126C29.9258 40.3126 29.8534 40.3361 29.7934 40.3797C29.7333 40.4233 29.6886 40.4848 29.6657 40.5554L29.3344 41.575H28.2625C28.1882 41.575 28.1159 41.5985 28.0558 41.6421C27.9958 41.6858 27.9511 41.7473 27.9282 41.8179C27.9052 41.8885 27.9052 41.9646 27.9282 42.0352C27.9511 42.1058 27.9958 42.1673 28.0559 42.2109Z" fill="#FF5C00"/>
<path d="M22.6456 42.8887L23.5128 43.5188L23.1815 44.5383C23.1585 44.6089 23.1585 44.685 23.1814 44.7557C23.2043 44.8263 23.249 44.8879 23.3091 44.9315C23.3692 44.9752 23.4416 44.9987 23.5158 44.9987C23.5901 44.9987 23.6625 44.9752 23.7225 44.9315L24.5897 44.3014L25.4569 44.9315C25.517 44.9752 25.5893 44.9987 25.6636 44.9987C25.7379 44.9987 25.8103 44.9752 25.8703 44.9315C25.9304 44.8879 25.9751 44.8263 25.9981 44.7557C26.021 44.685 26.021 44.6089 25.998 44.5383L25.6667 43.5188L26.5339 42.8887C26.5939 42.845 26.6386 42.7835 26.6616 42.7129C26.6845 42.6423 26.6845 42.5662 26.6616 42.4956C26.6386 42.425 26.5939 42.3635 26.5339 42.3198C26.4738 42.2762 26.4015 42.2527 26.3273 42.2527H25.2552L24.9241 41.2332C24.9011 41.1625 24.8564 41.101 24.7964 41.0573C24.7363 41.0136 24.6639 40.9901 24.5897 40.9901C24.5154 40.9901 24.443 41.0136 24.383 41.0573C24.3229 41.101 24.2782 41.1625 24.2553 41.2332L23.9241 42.2527H22.8522C22.7779 42.2527 22.7056 42.2762 22.6456 42.3198C22.5855 42.3635 22.5408 42.425 22.5179 42.4956C22.4949 42.5662 22.4949 42.6423 22.5179 42.7129C22.5408 42.7835 22.5855 42.845 22.6456 42.8887Z" fill="#FF5C00"/>
<path d="M33.466 42.8887L34.3332 43.5188L34.0019 44.5383C33.9789 44.6089 33.9789 44.685 34.0018 44.7557C34.0247 44.8263 34.0695 44.8879 34.1295 44.9315C34.1896 44.9752 34.262 44.9987 34.3363 44.9987C34.4105 44.9987 34.4829 44.9752 34.543 44.9315L35.4102 44.3014L36.2773 44.9315C36.3374 44.9752 36.4098 44.9987 36.484 44.9987C36.5583 44.9987 36.6307 44.9752 36.6908 44.9315C36.7509 44.8879 36.7956 44.8263 36.8185 44.7557C36.8414 44.685 36.8414 44.6089 36.8184 44.5383L36.4871 43.5188L37.3543 42.8887C37.4144 42.845 37.4591 42.7835 37.482 42.7129C37.5049 42.6422 37.5049 42.5662 37.482 42.4956C37.459 42.425 37.4143 42.3634 37.3542 42.3198C37.2942 42.2762 37.2218 42.2527 37.1476 42.2527H36.0757L35.7445 41.2332C35.7216 41.1625 35.6769 41.101 35.6168 41.0573C35.5567 41.0136 35.4844 40.9901 35.4101 40.9901C35.3358 40.9901 35.2635 41.0136 35.2034 41.0573C35.1433 41.101 35.0986 41.1625 35.0757 41.2332L34.7445 42.2527H33.6726C33.5984 42.2527 33.5261 42.2762 33.466 42.3198C33.4059 42.3635 33.3612 42.425 33.3383 42.4956C33.3154 42.5662 33.3154 42.6423 33.3383 42.7129C33.3613 42.7835 33.406 42.845 33.466 42.8887Z" fill="#FF5C00"/>
</svg>
