<svg width="75" height="75" viewBox="0 0 75 75" fill="none" xmlns="http://www.w3.org/2000/svg">
<g clip-path="url(#clip0)">
<path d="M37.5002 0C16.822 0 0 16.8228 0 37.5002C0 58.1775 16.822 75.0004 37.5002 75.0004C58.1775 75.0004 75.0004 58.1775 75.0004 37.5002C75.0004 16.8228 58.1775 0 37.5002 0ZM37.5002 72.272C18.3267 72.272 2.72758 56.6729 2.72758 37.5002C2.72758 18.3259 18.3267 2.72758 37.5002 2.72758C56.6736 2.72758 72.272 18.3259 72.272 37.5002C72.272 56.6729 56.6736 72.272 37.5002 72.272Z" fill="#FF5C00"/>
<path d="M37.5002 8.82971C21.9963 8.82971 9.35885 21.208 8.87577 36.5964C8.8625 36.6729 8.83051 36.7424 8.83051 36.8228C8.83051 36.8711 8.85236 36.9117 8.85782 36.9585C8.85392 37.1404 8.83051 37.3175 8.83051 37.5002C8.83051 53.3084 21.6911 66.1698 37.5002 66.1698C53.3085 66.1698 66.1699 53.3084 66.1699 37.5002C66.1699 21.6919 53.3085 8.82971 37.5002 8.82971ZM56.3802 55.2369L53.0868 52.0496C52.546 51.5244 51.6828 51.5392 51.1584 52.0816C50.6347 52.6232 50.6488 53.4856 51.1904 54.01L54.4128 57.1286C50.2032 60.7607 44.8237 63.0481 38.919 63.3705V59.2092C38.919 58.4561 38.3087 57.8451 37.5556 57.8451C36.8025 57.8451 36.1914 58.4561 36.1914 59.2092V63.3759C30.2586 63.0778 24.8487 60.7951 20.6173 57.1552L23.2223 54.4643C23.7468 53.9234 23.7327 53.0595 23.1919 52.5358C22.6495 52.0122 21.7856 52.0262 21.2634 52.567L18.649 55.2673C14.4144 50.7767 11.7672 44.7909 11.5932 38.1869H16.4131C17.1662 38.1869 17.7765 37.5766 17.7765 36.8235C17.7765 36.0704 17.1662 35.4594 16.4131 35.4594H11.6611C12.0818 30.0947 14.1272 25.1843 17.3246 21.2275L20.8085 24.5997C21.0722 24.8557 21.4149 24.9829 21.7567 24.9829C22.1125 24.9829 22.4692 24.844 22.7369 24.5678C23.2598 24.0269 23.2465 23.163 22.7049 22.6385L19.1423 19.1898C23.5517 14.7687 29.55 11.9577 36.1914 11.6244V15.6803C36.1914 16.4342 36.8017 17.0445 37.5548 17.0445C38.3079 17.0445 38.919 16.4342 38.919 15.6803V11.6299C44.9337 11.9577 50.4006 14.3309 54.6445 18.0816L51.5377 21.2915C51.014 21.8324 51.0281 22.6955 51.5697 23.22C51.8342 23.4759 52.1761 23.6031 52.5179 23.6031C52.8745 23.6031 53.2304 23.4642 53.4981 23.188L56.5894 19.9945C60.3971 24.1424 62.8726 29.5156 63.3385 35.4594H58.6981C57.9442 35.4594 57.3339 36.0696 57.3339 36.8228C57.3339 37.5759 57.9442 38.1869 58.6981 38.1869H63.4072C63.2339 44.7753 60.5976 50.7486 56.3802 55.2369Z" fill="#FF5C00"/>
<path d="M42.53 30.4841C39.7213 30.4841 37.4354 32.77 37.4354 35.5795V40.5539C37.4354 43.3635 39.7213 45.6485 42.53 45.6485C45.3395 45.6485 47.6254 43.3635 47.6254 40.5539V35.5795C47.6254 32.77 45.3395 30.4841 42.53 30.4841ZM44.897 40.5539C44.897 41.8596 43.8349 42.921 42.53 42.921C41.2244 42.921 40.163 41.8596 40.163 40.5539V35.5795C40.163 34.2739 41.2244 33.2117 42.53 33.2117C43.8349 33.2117 44.897 34.2739 44.897 35.5795V40.5539Z" fill="#FF5C00"/>
<path d="M31.3364 35.4594H28.9693V34.4378C28.9693 31.9568 30.9883 29.9386 33.4685 29.9386C34.2224 29.9386 34.8327 29.3276 34.8327 28.5744C34.8327 27.8213 34.2224 27.2103 33.4685 27.2103C29.4836 27.2103 26.2418 30.4529 26.2418 34.4378V40.554C26.2418 42.0633 26.9051 43.486 28.0617 44.4576C28.9865 45.2334 30.147 45.6478 31.345 45.6478C31.6446 45.6478 31.9474 45.622 32.2495 45.569C34.3035 45.2076 35.9908 43.5211 36.3514 41.4663C36.6159 39.9608 36.2109 38.4343 35.2393 37.2793C34.2684 36.1219 32.8457 35.4594 31.3364 35.4594ZM33.6652 40.9941C33.5013 41.9244 32.7076 42.7189 31.7773 42.8828C31.0531 43.0068 30.3601 42.825 29.8161 42.3685C29.2776 41.9166 28.9693 41.2556 28.9693 40.554V38.1869H31.3364C32.038 38.1869 32.699 38.4952 33.1501 39.0329C33.609 39.5784 33.7908 40.2754 33.6652 40.9941Z" fill="#FF5C00"/>
</g>
<defs>
<clipPath id="clip0">
<rect width="75" height="75" fill="white"/>
</clipPath>
</defs>
</svg>
