<svg width="60" height="60" viewBox="0 0 60 60" fill="none" xmlns="http://www.w3.org/2000/svg">
<path d="M57.0968 30.9677C55.837 30.9677 54.7724 31.7795 54.3717 32.9032H52.2581V25.1613H50.3226V32.9032H48.3871V29.0323H46.4516V32.9032H44.5161V27.0968H42.5806V32.9032H41.9933L32.9188 24.4761C33.5274 23.549 33.871 22.4466 33.871 21.2903C33.871 19.704 33.2302 18.2661 32.1958 17.2171L38.1696 10.6452H40.6934C41.1805 15.5283 45.3128 19.3548 50.3216 19.3548C55.6579 19.3548 59.9991 15.0137 59.9991 9.67742C59.9991 4.34114 55.6589 0 50.3226 0C45.3128 0 41.1815 3.82655 40.6943 8.70968H37.3143L30.6133 16.0811C29.8422 15.7027 28.9789 15.4839 28.0645 15.4839C28.0357 15.4839 28.0073 15.4877 27.9795 15.4877L26.9063 10.6452H23.2258V8.97949L20.6311 8.11429C20.5782 7.97915 20.522 7.84447 20.4629 7.7098L21.6872 5.26257L17.9632 1.53856L15.516 2.76288C15.3813 2.70287 15.2467 2.64664 15.1115 2.59466L14.2463 0H8.98044L8.11571 2.59466C7.98009 2.64759 7.84542 2.70382 7.71075 2.76288L5.26351 1.5395L1.5395 5.26351L2.76383 7.71075C2.70382 7.84542 2.64759 7.98009 2.59561 8.11571L0 8.97949V14.2454L2.59466 15.1101C2.64759 15.2457 2.70382 15.3804 2.76288 15.5151L1.53856 17.9623L5.26257 21.6863L7.7098 20.462C7.84447 20.522 7.97915 20.5782 8.11334 20.6311L8.97949 23.2258H14.2454L15.1101 20.6311C15.2448 20.5782 15.3794 20.522 15.5136 20.462L17.9613 21.6863L21.6854 17.9623L20.461 15.5151C20.521 15.3804 20.5773 15.2457 20.6293 15.1101L23.2258 14.2463V12.5806H25.3517L26.0747 15.842C23.8519 16.6567 22.2581 18.7878 22.2581 21.2903C22.2581 22.8879 22.9191 24.3637 24.0173 25.4363L18.8478 32.9032H17.4194V27.0968H15.4839V32.9032H13.5484V25.1613H11.6129V32.9032H9.67742V29.0323H7.74194V32.9032H5.62831C5.2276 31.7795 4.16299 30.9677 2.90323 30.9677C1.30277 30.9677 0 32.2705 0 33.871C0 35.4714 1.30277 36.7742 2.90323 36.7742C4.16299 36.7742 5.2276 35.9624 5.62831 34.8387H19.8619L25.1613 27.1837V47.0111C24.9784 46.823 24.8485 46.582 24.7993 46.3094L23.0651 36.7742H20.4969C18.8001 36.7742 17.4194 38.1549 17.4194 39.8518V40.4699C17.4194 40.6404 17.434 40.8105 17.4609 40.9759L19.2017 51.4222C19.3374 52.2349 19.6818 53.0061 20.1969 53.6487L22.5898 56.6398C23.0004 57.1539 23.2258 57.7985 23.2258 58.4544V60H38.7097V58.4544C38.7097 57.7975 38.9351 57.1539 39.3457 56.6398L41.5198 53.9218C42.204 53.068 42.5806 51.9949 42.5806 50.9005V40.6452C42.5806 39.0447 41.2779 37.7419 39.6774 37.7419C39.2951 37.7419 38.9322 37.8204 38.5972 37.955C38.2636 36.7208 37.1447 35.8064 35.8064 35.8064C35.4658 35.8064 35.1425 35.8759 34.8387 35.9846V35.8064C34.8387 34.206 33.5359 32.9032 31.9355 32.9032C31.5948 32.9032 31.2716 32.9727 30.9677 33.0814V26.3072C31.1875 26.1805 31.3935 26.0393 31.592 25.8862L41.2325 34.8387H54.3717C54.7724 35.9624 55.837 36.7742 57.0968 36.7742C58.6972 36.7742 60 35.4714 60 33.871C60 32.2705 58.6972 30.9677 57.0968 30.9677ZM42.5806 9.67742C42.5806 8.61375 42.7966 7.59876 43.1864 6.67543L44.8856 7.65688C44.6508 8.28676 44.5161 8.96626 44.5161 9.67742C44.5161 10.3886 44.6508 11.0681 44.8856 11.698L43.1864 12.6794C42.7966 11.7561 42.5806 10.7411 42.5806 9.67742ZM50.3226 5.80645C52.4575 5.80645 54.1935 7.54253 54.1935 9.67742C54.1935 11.8123 52.4575 13.5484 50.3226 13.5484C48.1877 13.5484 46.4516 11.8123 46.4516 9.67742C46.4516 7.54253 48.1877 5.80645 50.3226 5.80645ZM58.0645 9.67742C58.0645 10.7411 57.8486 11.7561 57.4587 12.6794L55.7595 11.698C55.9944 11.0681 56.129 10.3886 56.129 9.67742C56.129 8.96626 55.9944 8.28676 55.7595 7.65688L57.4587 6.67543C57.8486 7.59876 58.0645 8.61375 58.0645 9.67742ZM44.165 14.3507L45.8506 13.3773C46.7205 14.4273 47.9547 15.1607 49.3548 15.3969V17.3527C47.2412 17.0862 45.395 15.9677 44.165 14.3507ZM51.2903 17.3527V15.3969C52.6904 15.1607 53.9247 14.4273 54.7946 13.3773L56.4801 14.3507C55.2501 15.9677 53.4039 17.0862 51.2903 17.3527ZM56.4801 5.0041L54.7946 5.97751C53.9247 4.92849 52.6904 4.19512 51.2903 3.95791V2.00211C53.4039 2.26862 55.2501 3.3871 56.4801 5.0041ZM49.3548 2.00211V3.95791C47.9547 4.19418 46.7205 4.92755 45.8506 5.97751L44.165 5.0041C45.395 3.3871 47.2412 2.26862 49.3548 2.00211ZM21.2903 12.8505L19.1129 13.5763L18.9607 14.0379C18.8459 14.3876 18.6985 14.7415 18.5218 15.0898L18.302 15.5245L19.3298 17.581L17.5791 19.3317L15.5236 18.3039L15.0898 18.5227C14.7377 18.6999 14.3833 18.8478 14.037 18.9622L13.5753 19.1138L12.8505 21.2903H10.3744L9.64859 19.1129L9.18693 18.9607C8.8401 18.8469 8.48523 18.6985 8.13366 18.5218L7.70035 18.303L5.64485 19.3307L3.89412 17.58L4.92188 15.5236L4.70309 15.0898C4.52731 14.7406 4.37988 14.3867 4.26364 14.0379L4.1129 13.5763L1.93548 12.8505V10.3744L4.1129 9.64859L4.26506 9.18693C4.37988 8.83726 4.52731 8.48334 4.70404 8.13461L4.92377 7.70035L3.89412 5.64485L5.64485 3.89412L7.7013 4.92188L8.13603 4.70309C8.48523 4.52731 8.83915 4.37988 9.18788 4.26364L9.64954 4.11196L10.3753 1.93548H12.8514L13.5772 4.1129L14.0389 4.26506C14.3885 4.37988 14.7425 4.52731 15.0912 4.70404L15.5255 4.92377L17.5819 3.89601L19.3326 5.64674L18.3049 7.70319L18.5246 8.13792C18.7009 8.48711 18.8478 8.84151 18.9641 9.18977L19.1157 9.65143L21.2932 10.3772V12.8505H21.2903ZM2.90323 34.8387C2.37021 34.8387 1.93548 34.404 1.93548 33.871C1.93548 33.338 2.37021 32.9032 2.90323 32.9032C3.43624 32.9032 3.87097 33.338 3.87097 33.871C3.87097 34.404 3.43624 34.8387 2.90323 34.8387ZM28.0645 17.4194C30.1994 17.4194 31.9355 19.1554 31.9355 21.2903C31.9355 22.2675 31.566 23.1842 30.9366 23.8822C30.7792 22.4291 29.5587 21.2903 28.0645 21.2903C26.5685 21.2903 25.3479 22.4315 25.1925 23.8859C24.5621 23.1889 24.1935 22.2718 24.1935 21.2903C24.1935 19.1554 25.9296 17.4194 28.0645 17.4194ZM31.9355 34.8387C32.4685 34.8387 32.9032 35.2734 32.9032 35.8064V47.4194H34.8387V38.7097C34.8387 38.1767 35.2734 37.7419 35.8064 37.7419C36.3395 37.7419 36.7742 38.1767 36.7742 38.7097V47.4194H38.7097V40.6452C38.7097 40.1121 39.1444 39.6774 39.6774 39.6774C40.2104 39.6774 40.6452 40.1121 40.6452 40.6452V50.9005C40.6452 51.5573 40.4198 52.2009 40.0091 52.715L37.835 55.433C37.2321 56.1862 36.8682 57.1086 36.7907 58.0655H25.1448C25.0663 57.1086 24.7025 56.1862 24.1005 55.433L21.7076 52.4419C21.3985 52.0558 21.1916 51.5942 21.1103 51.1056L19.3695 40.6579C19.3596 40.5951 19.3548 40.5327 19.3548 40.4699V39.8518C19.3548 39.2214 19.8666 38.7097 20.4969 38.7097H21.45L22.895 46.6557C23.1804 48.2198 24.5399 49.3548 26.129 49.3548H27.0968V24.1935C27.0968 23.6605 27.5315 23.2258 28.0645 23.2258C28.5975 23.2258 29.0323 23.6605 29.0323 24.1935V47.4194H30.9677V35.8064C30.9677 35.2734 31.4025 34.8387 31.9355 34.8387ZM57.0968 34.8387C56.5638 34.8387 56.129 34.404 56.129 33.871C56.129 33.338 56.5638 32.9032 57.0968 32.9032C57.6298 32.9032 58.0645 33.338 58.0645 33.871C58.0645 34.404 57.6298 34.8387 57.0968 34.8387Z" fill="#FF5C00"/>
</svg>
