<svg width="65" height="59" viewBox="0 0 65 59" fill="none" xmlns="http://www.w3.org/2000/svg">
<path d="M23.8852 24.8031H23.568V20.0429C23.568 19.195 22.5394 18.7727 21.9429 19.3698L20.6733 20.6391C20.3016 21.011 20.3016 21.6137 20.6733 21.9854C20.9413 22.2532 21.329 22.3277 21.6639 22.2102V24.8031H21.3466C20.8208 24.8031 20.3945 25.2292 20.3945 25.7552C20.3945 26.2811 20.8207 26.7072 21.3466 26.7072H23.8852C24.4111 26.7072 24.8374 26.2811 24.8374 25.7552C24.8374 25.2292 24.4111 24.8031 23.8852 24.8031Z" fill="#FF5C00"/>
<path d="M28.7801 19.0909C27.2053 19.0909 25.9242 20.3721 25.9242 21.9469V23.851C25.9242 25.4257 27.2053 26.7071 28.7801 26.7071C30.3551 26.7071 31.6363 25.4257 31.6363 23.851V21.9469C31.6363 20.372 30.3551 19.0909 28.7801 19.0909ZM29.7323 23.8511C29.7323 24.3762 29.3052 24.8031 28.7801 24.8031C28.2553 24.8031 27.8282 24.3762 27.8282 23.8511V21.9471C27.8282 21.422 28.2553 20.9951 28.7801 20.9951C29.3052 20.9951 29.7323 21.422 29.7323 21.9471V23.8511Z" fill="#FF5C00"/>
<path d="M35.582 19.0909C34.0072 19.0909 32.7261 20.3721 32.7261 21.9469V23.851C32.7261 25.4257 34.0072 26.7071 35.582 26.7071C37.157 26.7071 38.4382 25.4257 38.4382 23.851V21.9469C38.4382 20.372 37.1571 19.0909 35.582 19.0909ZM36.5342 23.8511C36.5342 24.3762 36.1071 24.8031 35.582 24.8031C35.0572 24.8031 34.6301 24.3762 34.6301 23.8511V21.9471C34.6301 21.422 35.0572 20.9951 35.582 20.9951C36.1071 20.9951 36.5342 21.422 36.5342 21.9471V23.8511Z" fill="#FF5C00"/>
<path d="M40.48 20.9938C41.0057 20.9938 41.4321 20.5676 41.4321 20.0418C41.4321 19.5158 41.0057 19.0898 40.48 19.0898C39.9541 19.0898 39.528 19.5158 39.528 20.0418C39.528 20.5675 39.9541 20.9938 40.48 20.9938Z" fill="#FF5C00"/>
<path d="M44.1156 19.2096C43.6558 18.9543 43.0764 19.1199 42.8211 19.5796L39.6479 25.2914C39.3926 25.751 39.5583 26.3307 40.0178 26.586C40.475 26.8398 41.0558 26.6775 41.3125 26.2159L44.4856 20.5043C44.7407 20.0446 44.5753 19.465 44.1156 19.2096Z" fill="#FF5C00"/>
<path d="M43.6534 24.8019C43.1276 24.8019 42.7013 25.2281 42.7013 25.7538C42.7013 26.2797 43.1275 26.7058 43.6534 26.7058C44.1792 26.7058 44.6055 26.2797 44.6055 25.7538C44.6055 25.2281 44.1792 24.8019 43.6534 24.8019Z" fill="#FF5C00"/>
<path d="M0.952148 32.3567C1.47799 32.3567 1.9043 31.9305 1.9043 31.4046C1.9043 30.8795 2.33137 30.4524 2.85645 30.4524H62.1436C62.6686 30.4524 63.0957 30.8795 63.0957 31.4046C63.0957 31.9305 63.5219 32.3567 64.0479 32.3567C64.5738 32.3567 65 31.9305 65 31.4046C65 29.8296 63.7185 28.5481 62.1436 28.5481H61.2292C61.0742 28.1275 60.818 27.7458 60.4764 27.4417L57.2562 24.5759L59.1345 20.6961C59.8538 19.2106 59.1124 17.4321 57.5592 16.8923L53.4874 15.477L53.738 11.1736C53.834 9.52839 52.4709 8.16669 50.8268 8.26242L46.5234 8.51302L45.1081 4.44138C44.5674 2.88506 42.7875 2.1481 41.3043 2.86577L37.4244 4.74417L34.5587 1.524C33.4615 0.291413 31.5366 0.293825 30.4416 1.524L27.5759 4.74417L23.6958 2.86577C22.216 2.14924 20.434 2.88202 19.892 4.44113L18.4768 8.51302L14.1734 8.26242C12.5322 8.16619 11.1663 9.52585 11.2621 11.1736L11.5127 15.477L7.44123 16.8923C5.88453 17.4331 5.14795 19.2134 5.86561 20.6961L7.74389 24.5759L4.52372 27.4417C4.18209 27.7459 3.9259 28.1275 3.77089 28.5481H2.85645C1.28134 28.5481 0 29.8296 0 31.4046C0 31.9305 0.426309 32.3567 0.952148 32.3567ZM9.54738 25.52C9.86553 25.2371 9.95693 24.7771 9.77146 24.3938L7.57948 19.8664C7.35731 19.4075 7.58367 18.8591 8.06622 18.6911L12.8176 17.0394C13.2198 16.8997 13.4803 16.5098 13.4555 16.0848L13.1631 11.0629C13.1336 10.5554 13.5505 10.1345 14.0626 10.1634L19.0844 10.4558C19.5104 10.4805 19.8993 10.22 20.0392 9.81797L21.6908 5.0665C21.8576 4.58636 22.4051 4.3562 22.866 4.57976L27.3937 6.77173C27.7767 6.95696 28.2368 6.86568 28.5199 6.54766L31.864 2.78985C32.2031 2.40899 32.7964 2.40823 33.1362 2.78985L36.4804 6.54766C36.7635 6.86568 37.2235 6.95708 37.6064 6.77173L42.1342 4.57963C42.5942 4.35721 43.1418 4.58471 43.3094 5.0665L44.9611 9.81797C45.101 10.22 45.491 10.4807 45.9158 10.4558L50.9378 10.1634C51.4484 10.1345 51.8668 10.5539 51.8371 11.0629L51.5447 16.0848C51.52 16.5098 51.7804 16.8997 52.1826 17.0394L56.9342 18.6911C57.4154 18.8586 57.6437 19.4064 57.4208 19.8663L55.2288 24.3938C55.0433 24.7772 55.1349 25.2371 55.4529 25.52L58.8555 28.5483H15.3589C15.8477 19.5948 23.2748 12.3325 32.5 12.3325H32.5063C40.5564 12.3325 47.6163 18.0468 49.2921 25.9192C49.3848 26.3558 49.7771 26.6732 50.2227 26.6732C50.2899 26.6732 50.356 26.6668 50.422 26.6516C50.9349 26.5425 51.2637 26.0358 51.1545 25.523C51.1545 25.5217 51.1545 25.5217 51.1545 25.5203C49.3149 16.8849 41.6334 10.4281 32.5001 10.4281C22.3194 10.4281 13.9459 18.4548 13.4513 28.5481H6.14491L9.54738 25.52Z" fill="#FF5C00"/>
<path d="M64.0479 38.0696C63.5219 38.0696 63.0957 38.4958 63.0957 39.0218C63.0957 39.5469 62.6686 39.9739 62.1436 39.9739H2.85645C2.33137 39.9739 1.9043 39.5469 1.9043 39.0218C1.9043 38.4958 1.47799 38.0696 0.952148 38.0696C0.426309 38.0696 0 38.4958 0 39.0218C0 40.5968 1.28134 41.8782 2.85645 41.8782H10.1762L11.5296 43.2317L11.2621 47.8269C11.1667 49.4681 12.5247 50.8339 14.1734 50.7382L18.4768 50.4876L19.892 54.5592C20.4331 56.1159 22.2131 56.8527 23.6958 56.1348L27.5757 54.2564L30.4416 57.4766C31.5372 58.7076 33.4636 58.7068 34.5587 57.4766L37.4244 54.2564L41.3042 56.1348C42.7871 56.8529 44.5673 56.1155 45.108 54.5595L46.5232 50.4877L50.8266 50.7383C52.4801 50.8344 53.833 49.4636 53.7379 47.827L53.4704 43.2318L54.8239 41.8784H62.1436C63.7185 41.8784 65 40.5969 65 39.0219C65 38.4958 64.5738 38.0696 64.0479 38.0696ZM51.5445 42.9158L51.8369 47.9376C51.8666 48.445 51.4495 48.8666 50.9374 48.8372L45.9155 48.5448C45.4907 48.5198 45.1007 48.7805 44.9608 49.1826L43.3092 53.9342C43.1415 54.4161 42.5934 54.6435 42.1338 54.4208L37.6062 52.2288C37.2228 52.0434 36.7632 52.1349 36.4801 52.4529L33.1359 56.2107C32.7968 56.5916 32.2034 56.5922 31.8638 56.2107L28.5196 52.4529C28.2365 52.1349 27.7767 52.0436 27.3934 52.2288L22.8659 54.4209C22.4042 54.6443 21.8574 54.414 21.6907 53.9341L20.039 49.1826C19.8993 48.7805 19.51 48.5189 19.0844 48.5448L14.0626 48.8372C13.5489 48.8653 13.1336 48.4445 13.1631 47.9376L13.4555 42.9158C13.4714 42.6445 13.3704 42.3793 13.1782 42.1872L12.8692 41.8782H44.382C41.1957 44.9438 36.9684 46.668 32.4999 46.668C28.5427 46.668 24.8217 45.3529 21.7393 42.8672C21.3354 42.5391 20.7364 42.5958 20.4 43.0094C20.0712 43.4182 20.1346 44.0185 20.5434 44.3487C20.5447 44.3487 20.5447 44.35 20.5447 44.35C23.8734 47.0365 28.0523 48.5725 32.4973 48.5725L32.4999 48.5661L32.5024 48.5725C38.12 48.5725 43.3748 46.1129 46.9975 41.8784H52.1305L51.8215 42.1874C51.6296 42.3793 51.5287 42.6445 51.5445 42.9158Z" fill="#FF5C00"/>
<path d="M5.56761 33.3091H6.26624C6.7922 33.3091 7.21838 32.8831 7.21838 32.357C7.21838 31.8311 6.79233 31.4051 6.26624 31.4051H5.56761C3.46781 31.4051 1.7594 33.1134 1.7594 35.213C1.7594 37.313 3.46781 39.0213 5.56761 39.0213C6.58476 39.0213 7.54084 38.6252 8.26016 37.9058C8.97948 37.1865 9.3757 36.2304 9.3757 35.213C9.3757 34.6873 8.94977 34.2611 8.42368 34.2611H6.7743C6.24846 34.2611 5.82215 34.6872 5.82215 35.213C5.82215 35.7391 6.24833 36.1652 6.7743 36.1652H7.21749C7.13523 36.3076 7.03354 36.4399 6.91408 36.5595C6.55416 36.9192 6.07606 37.1172 5.56761 37.1172C4.51758 37.1172 3.66357 36.2629 3.66357 35.213C3.66357 34.1634 4.51758 33.3091 5.56761 33.3091Z" fill="#FF5C00"/>
<path d="M11.0868 31.4051C10.5611 31.4051 10.1348 31.8311 10.1348 32.357V35.8034C10.1348 37.5779 11.5866 39.0213 13.3717 39.0213C15.1565 39.0213 16.6085 37.5779 16.6085 35.8034V32.357C16.6085 31.8313 16.1823 31.4051 15.6566 31.4051C15.1307 31.4051 14.7044 31.8311 14.7044 32.357V35.8034C14.7044 36.5278 14.1065 37.1172 13.3716 37.1172C12.6366 37.1172 12.0387 36.5278 12.0387 35.8034V32.357C12.0389 31.8311 11.6125 31.4051 11.0868 31.4051Z" fill="#FF5C00"/>
<path d="M20.1646 31.4051C19.7679 31.4051 19.4126 31.6511 19.2733 32.0226L17.1312 37.7348C16.9465 38.2273 17.1962 38.776 17.6883 38.9605C18.1807 39.1447 18.7293 38.8957 18.9141 38.4034L19.0394 38.0691H21.2899L21.4154 38.4034C21.6008 38.8984 22.1519 39.1443 22.641 38.9605C23.133 38.776 23.3825 38.2273 23.1979 37.7348L21.056 32.0226C20.9166 31.6511 20.5614 31.4051 20.1646 31.4051ZM19.7532 36.1652L20.1645 35.0683L20.5757 36.1652H19.7532Z" fill="#FF5C00"/>
<path d="M29.9872 34.2613C29.9872 32.6866 28.7131 31.4052 27.1471 31.4052H25.2904C24.7647 31.4052 24.3384 31.8313 24.3384 32.3571V38.0694C24.3384 38.5953 24.7646 39.0214 25.2904 39.0214C25.8161 39.0214 26.2425 38.5953 26.2425 38.0694V37.1173H26.7502L28.3591 38.7397C28.5451 38.9274 28.7901 39.0214 29.0351 39.0214C29.2774 39.0214 29.5197 38.9294 29.7054 38.7454C30.0787 38.3752 30.0812 37.7723 29.7112 37.3991L28.8582 36.5389C29.5435 36.0169 29.9872 35.1903 29.9872 34.2613ZM27.1471 35.213H26.2425V33.3091H27.1471C27.663 33.3091 28.083 33.7361 28.083 34.2612C28.083 34.7861 27.6632 35.213 27.1471 35.213Z" fill="#FF5C00"/>
<path d="M34.0322 31.4051C33.6355 31.4051 33.2802 31.6511 33.1409 32.0226L30.9988 37.7348C30.814 38.2273 31.0637 38.776 31.5559 38.9604C32.0483 39.1447 32.5969 38.8957 32.7818 38.4034L32.9071 38.0691H35.1577L35.2831 38.4034C35.4263 38.7856 35.7891 39.0213 36.1744 39.0213C36.2855 39.0213 36.3985 39.0018 36.5086 38.9604C37.0007 38.776 37.2501 38.2273 37.0655 37.7348L34.9236 32.0226C34.7842 31.6511 34.429 31.4051 34.0322 31.4051ZM33.6208 36.1652L34.0321 35.0683L34.4433 36.1652H33.6208Z" fill="#FF5C00"/>
<path d="M42.2678 32.357V35.1611L39.7986 31.7942C39.5551 31.4625 39.126 31.3244 38.7347 31.4526C38.3433 31.5805 38.0789 31.9458 38.0789 32.3572V38.0694C38.0789 38.5953 38.505 39.0214 39.0309 39.0214C39.5566 39.0214 39.983 38.5953 39.983 38.0694V35.2654L42.4521 38.6323C42.9919 39.3685 44.1721 38.9936 44.1721 38.0691V32.3569C44.172 31.8311 43.7458 31.405 43.22 31.405C42.694 31.4051 42.2678 31.8311 42.2678 32.357Z" fill="#FF5C00"/>
<path d="M47.8246 39.0213C48.3504 39.0213 48.7766 38.5952 48.7766 38.0692V33.3091H49.9826C50.5084 33.3091 50.9347 32.8831 50.9347 32.357C50.9347 31.8311 50.5085 31.4051 49.9826 31.4051H45.6667C45.1409 31.4051 44.7146 31.8311 44.7146 32.357C44.7146 32.8831 45.1408 33.3091 45.6667 33.3091H46.8727V38.0692C46.8727 38.5952 47.2989 39.0213 47.8246 39.0213Z" fill="#FF5C00"/>
<path d="M55.3652 33.3091C55.8911 33.3091 56.3172 32.8831 56.3172 32.357C56.3172 31.8311 55.8912 31.4051 55.3652 31.4051H52.4457C51.92 31.4051 51.4937 31.8311 51.4937 32.357V38.0692C51.4937 38.5952 51.9198 39.0213 52.4457 39.0213H55.3652C55.8911 39.0213 56.3172 38.5952 56.3172 38.0692C56.3172 37.5433 55.8911 37.1172 55.3652 37.1172H53.3977V36.1652H54.6036C55.1295 36.1652 55.5555 35.7391 55.5555 35.213C55.5555 34.6872 55.1295 34.2611 54.6036 34.2611H53.3977V33.3091H55.3652Z" fill="#FF5C00"/>
<path d="M61.2729 33.3091C61.7988 33.3091 62.2249 32.8831 62.2249 32.357C62.2249 31.8311 61.7989 31.4051 61.2729 31.4051H58.3534C57.8277 31.4051 57.4014 31.8311 57.4014 32.357V38.0692C57.4014 38.5952 57.8275 39.0213 58.3534 39.0213H61.2729C61.7988 39.0213 62.2249 38.5952 62.2249 38.0692C62.2249 37.5433 61.7988 37.1172 61.2729 37.1172H59.3054V36.1652H60.5113C61.0372 36.1652 61.4632 35.7391 61.4632 35.213C61.4632 34.6872 61.0372 34.2611 60.5113 34.2611H59.3054V33.3091H61.2729Z" fill="#FF5C00"/>
</svg>
