<svg width="50" height="50" viewBox="0 0 50 50" fill="none" xmlns="http://www.w3.org/2000/svg">
<circle cx="25" cy="25" r="25" fill="#00BB34"/>
<path d="M24.0554 13.7174C24.3667 12.8218 25.6333 12.8218 25.9446 13.7174L28.0631 19.8122C28.2005 20.2073 28.5691 20.4752 28.9873 20.4837L35.4385 20.6151C36.3864 20.6345 36.7778 21.839 36.0223 22.4118L30.8804 26.3101C30.5471 26.5628 30.4063 26.9962 30.5274 27.3965L32.3959 33.5726C32.6705 34.4801 31.6458 35.2246 30.8676 34.683L25.5712 30.9975C25.2279 30.7586 24.7721 30.7586 24.4288 30.9975L19.1324 34.683C18.3542 35.2246 17.3295 34.4801 17.6041 33.5726L19.4726 27.3965C19.5937 26.9962 19.4529 26.5628 19.1196 26.3101L13.9777 22.4118C13.2222 21.839 13.6136 20.6345 14.5615 20.6151L21.0127 20.4837C21.4309 20.4752 21.7995 20.2073 21.9369 19.8122L24.0554 13.7174Z" fill="white"/>
</svg>
